<?xml version="1.0" encoding="utf-8"?>
<!-- Generator: Adobe Illustrator 26.0.3, SVG Export Plug-In . SVG Version: 6.00 Build 0)  -->
<svg version="1.1" xmlns="http://www.w3.org/2000/svg" xmlns:xlink="http://www.w3.org/1999/xlink" x="0px" y="0px"
	 viewBox="0 0 100 125" style="enable-background:new 0 0 100 125;" xml:space="preserve">
<style type="text/css">
	.st0{fill:#66CC00;}
</style>
<g id="Layer_2">
</g>
<g id="Layer_1">
	<g>
		<path class="st0" d="M49.3,42.2c0.3,0,0.6-0.1,0.8-0.1c0.3,0,0.6,0,0.8,0.1v-5.9c-1.1-1.4-1.5-2.9-1.7-4.3V42.2z"/>
		<path class="st0" d="M56.2,21.7c0.3,0,0.5,0.1,0.6,0.4s-0.2,0.5-0.4,0.6C54,23,52,26,51.1,27.6c0.5-0.1,1.1-0.2,1.8-0.2
			c0.7,0,1.6,0.1,2.6,0.4c1-0.3,1.9-0.9,2.7-1.6c1.7-1.7,1.7-4.3,0.1-6s-4.3-1.6-6,0.1c-2.1,2.1-2.1,5-1.9,6.6
			C51.4,25.2,53.5,22.1,56.2,21.7z"/>
		<path class="st0" d="M55.3,37.6c1.1,0,2.1-0.4,2.9-1.2c0.8-0.8,1.2-1.8,1.2-3c0-1.1-0.5-2.2-1.3-3c-1.7-1.7-3.8-2-5.2-2
			c-0.5,0-1,0-1.3,0.1c1.7,1,4.8,3.2,5.2,5.8c0,0.3-0.2,0.5-0.4,0.6c0,0,0,0-0.1,0c-0.2,0-0.5-0.2-0.5-0.4c-0.4-2.5-3.9-4.7-5.3-5.4
			c-0.3,1.4-0.7,4.8,1.8,7.3C53.1,37.2,54.2,37.6,55.3,37.6z"/>
		<path class="st0" d="M42.9,32.5c3.5,0,5.7-2.7,6.4-3.9c-1.5-0.4-5.6-1.4-7.6,0.1c-0.2,0.2-0.5,0.1-0.7-0.1
			c-0.2-0.2-0.1-0.5,0.1-0.7c2.1-1.6,5.8-0.9,7.8-0.5c-1-1.3-3-3.3-6-3.3c-2.4,0-4.3,1.9-4.3,4.2C38.6,30.6,40.6,32.5,42.9,32.5z"/>
		<path class="st0" d="M83.9,81.9v-3.7c0-3-1.5-5.8-4.1-7.4l-4.4-2.7c-1.2-0.7-1.9-2-1.9-3.4v-4c0-4.1-2.9-7.5-6.7-8.5
			c-0.4-2.6-2.7-4.6-5.4-4.6c-1.7,0-3.2,0.7-4.3,2c-0.1,0.2-0.4,0.2-0.6,0.2c-0.2-0.1-0.3-0.3-0.3-0.5c0-3.4-2.8-6.1-6.2-6.1
			S44,45.9,44,49.3c0,0.2-0.1,0.4-0.3,0.5c-0.2,0.1-0.4,0-0.6-0.2c-1-1.3-2.6-2-4.3-2c-2.7,0-4.9,1.9-5.4,4.5c-4,0.8-7,4.3-7,8.5v4
			c0,1.4-0.7,2.7-1.9,3.4l-4.4,2.7c-2.6,1.6-4.1,4.4-4.1,7.4v3.7c-2.3,0.9-3.8,3.1-3.8,5.7c0,3.4,2.8,6.2,6.2,6.2
			c3.4,0,6.2-2.8,6.2-6.2c0-2.6-1.6-4.8-3.8-5.7v-3.7c0-1.4,0.7-2.7,1.9-3.4l4.4-2.7c2.6-1.6,4.1-4.4,4.1-7.4v-4c0-2.2,1.8-4,4-4
			h12.4v10.2l-6.3,3.9c-2.6,1.6-4.1,4.4-4.1,7.4v7.4c-2.3,0.9-3.8,3.1-3.8,5.7c0,3.4,2.8,6.2,6.2,6.2c3.4,0,6.2-2.8,6.2-6.2
			c0-2.6-1.6-4.8-3.8-5.7v-7.4c0-1.4,0.7-2.7,1.9-3.4L50,71l6.4,3.9c1.2,0.7,1.9,2,1.9,3.4v7.3c-2.3,0.9-3.8,3.1-3.8,5.7
			c0,3.4,2.8,6.2,6.2,6.2s6.2-2.8,6.2-6.2c0-2.6-1.6-4.8-3.8-5.7v-7.3c0-3-1.6-5.9-4.2-7.4l-6.5-4V56.7h12.4c2.2,0,4,1.8,4,4v4
			c0,3,1.5,5.8,4.1,7.4l4.4,2.7c1.2,0.7,1.9,2,1.9,3.4v3.7c-2.3,0.9-3.8,3.1-3.8,5.7c0,3.4,2.8,6.2,6.2,6.2c3.4,0,6.2-2.8,6.2-6.2
			C87.7,85.1,86.1,82.9,83.9,81.9z M61.4,48.6c1.6,0,3.1,0.9,3.9,2.2c0.1,0.2,0.1,0.5-0.2,0.7c-0.1,0-0.2,0.1-0.2,0.1
			c-0.2,0-0.3-0.1-0.4-0.2c-0.6-1.1-1.8-1.7-3-1.7c-0.3,0-0.5-0.2-0.5-0.5C60.9,48.8,61.1,48.6,61.4,48.6z M50.1,44.2
			c2.2,0,4.2,1.4,4.9,3.5c0.1,0.3-0.1,0.5-0.3,0.6c-0.1,0-0.1,0-0.2,0c-0.2,0-0.4-0.1-0.5-0.3c-0.6-1.7-2.2-2.9-4-2.9
			c-0.3,0-0.5-0.2-0.5-0.5C49.6,44.4,49.8,44.2,50.1,44.2z M38.8,48.6c1.4,0,2.6,0.6,3.5,1.7c0.2,0.2,0.1,0.5-0.1,0.7
			c-0.1,0.1-0.2,0.1-0.3,0.1c-0.1,0-0.3-0.1-0.4-0.2c-0.7-0.8-1.7-1.3-2.7-1.3c-0.3,0-0.5-0.2-0.5-0.5
			C38.3,48.8,38.5,48.6,38.8,48.6z"/>
	</g>
</g>
</svg>
